<svg version="1.1" id="Bullet-Train--Streamline-Noto-Emoji" xmlns="http://www.w3.org/2000/svg" xmlns:xlink="http://www.w3.org/1999/xlink" x="0" y="0" viewBox="22.161697 24.117188 656.29144 653.89844" xml:space="preserve" enable-background="new 0 0 128 128" height="700" width="700">
  <desc>
    Bullet Train Streamline Emoji: https://streamlinehq.com
  </desc>
  <g>
    <path d="M449.42187500000006 537.9609375h228.9765625v89.8515625H449.42187500000006Z" fill="#455A64" stroke-width="5.4688"></path>
    <path d="M379.09374999999994 605.0625a72.953125 72.953125 0 1 0 145.90625 0 72.953125 72.953125 0 1 0 -145.90625 0" fill="#455A64" stroke-width="5.4688"></path>
    <path d="M403.375 605.0625a48.671875 48.671875 0 1 0 97.34375 0 48.671875 48.671875 0 1 0 -97.34375 0" fill="#607D8B" stroke-width="5.4688"></path>
    <path d="M389.921875 572.359375v32.703125h44.734375c0 9.5703125 7.765625 17.3359375 17.3359375 17.3359375s17.3359375 -7.765625 17.3359375 -17.3359375h41.7265625v-32.703125H389.921875z" fill="#455A64" stroke-width="5.4688"></path>
    <path d="M110.25 477.36718750000006h-0.8203125s-25.703125 44.3515625 -41.5078125 79.625c-10.0078125 22.3125 -18.8125 49.546875 -23.953125 66.609375 -2.40625 8.0390625 2.7890625 16.40625 10.171875 16.40625h260.09375l43.09375 -52.3359375 321.015625 0V477.36718750000006H110.25z" fill="#0277BD" stroke-width="5.4688"></path>
    <path d="m97.5625 494.4296875 -29.640625 62.5625 43.75 -18.703125c16.3515625 -7 33.90625 -9.734375 51.29687500000001 -8.0390625 32.3203125 3.1171874999999996 92.91406249999999 7.7109375 169.8046875 7.7109375l345.625 0v-36.3125L97.5625 494.4296875z" fill="#004F84" stroke-width="5.4688"></path>
    <g>
      <path d="M621.359375 24.5546875c-126.4921875 1.1484375 -161.109375 36.421875 -161.109375 36.421875L356.5078125 164.5c-121.296875 19.03125 -236.25000000000003 79.953125 -271.796875 109.2109375C38.7734375 311.5546875 11.4296875 361.48437499999994 26.25 409.2265625c14.8203125 47.796875 71.3125 85.203125 71.3125 85.203125s86.1328125 18.2109375 233.2421875 18.2109375l347.59375 0V24.1171875c-18.703125 0.0546875 -30.1328125 0.21875 -57.0390625 0.4375z" fill="#E0E0E0" stroke-width="5.4688"></path>
    </g>
    <path d="M128.4609375 384.5078125a32.9765625 37.953125 0 1 0 65.953125 0 32.9765625 37.953125 0 1 0 -65.953125 0" fill="#FFCA28" stroke-width="5.4688"></path>
    <path d="M175.765625 417.21093750000006c-15.6953125 0 -28.4375 -14.65625 -28.4375 -32.703125 0 -18.046875 12.7421875 -32.703125 28.4375 -32.703125 0.984375 0 1.8593750000000002 0.21875 2.7890625 0.328125 -4.9765625 -3.5 -10.828125 -5.578125 -17.1171875 -5.578125 -18.2109375 0 -32.9765625 17.0078125 -32.9765625 37.953125 0 20.9453125 14.765625000000002 37.953125 32.9765625 37.953125 6.289062499999999 0 12.140625000000002 -2.078125 17.1171875 -5.578125 -0.9296875000000001 0.109375 -1.8046875 0.328125 -2.7890625 0.328125z" fill="#E2A610" stroke-width="5.4688"></path>
    <path d="M527.3515625 283.390625c-25.2109375 49.3828125 2.2421875 63.10937499999999 21.765625 63.10937499999999l129.3359375 0v-164.0625c-66.6640625 12.9609375 -131.8515625 63.328125 -151.1015625 100.953125z" fill="#0277BD" stroke-width="5.4688"></path>
    <path d="M189.109375 463.69531250000006C56.0546875 440.9453125 23.789062499999996 377.9453125 22.203124999999996 375.75781249999994c-0.328125 11.9765625 1.2578125 25.046875 6.015625000000001 39.2109375 16.078125 47.359375 69.34375 79.4609375 69.34375 79.4609375s86.1328125 18.2109375 233.2421875 18.2109375l347.59375 0v-33.796875c-139.3984375 1.3671875 -394.7890625 1.0390625 -489.2890625 -15.1484375z" fill="#BDBDBD" stroke-width="5.4688"></path>
    <path d="M348.578125 200.9765625c20.8359375 -1.5312500000000002 56 2.84375 56.0546875 33.359375 -12.359374999999998 39.9765625 -171.1171875 55.0703125 -198.5703125 30.84375 -15.2578125 -39.046875 117.63281250000001 -64.203125 142.515625 -64.203125z" fill="#F5F5F5" stroke-width="5.4688"></path>
    <path d="m403.921875 564.046875 -66.0078125 76.015625 -46.21093749999999 0 66.8828125 -77z" fill="#039BE5" stroke-width="5.4688"></path>
    <path d="m375.6484375 152.9609375 223.015625 -2.6796875 0 -52.0625 -169.859375 0z" fill="#BAE2FD" stroke-width="5.4688"></path>
    <path d="m538.015625 89.03125 -106.1484375 0.38281250000000006 -13.5625 13.507812500000002 104.34374999999999 -0.8203125c3.1171874999999996 0.8203125 4.8671875 4.1015625 3.8281249999999996 7.109375l-7.1640625 31.6640625c-1.3125 3.7187500000000004 -4.8125 6.234374999999999 -8.8046875 6.234374999999999H373.953125l-16.515625 16.515625h241.5546875c5.0859375 0 9.2421875 -4.15625 9.2421875 -9.2421875V98.9296875c0 -5.0859375 -4.1015625 -9.1875 -9.1328125 -9.2421875l-61.0859375 -0.65625zm48.50781249999999 58.07812499999999h-50.85937500000001c-3.3359375 0 -5.6328125 -3.28125 -4.59375 -6.3984375l6.7265625 -30.3515625c0.984375 -2.84375 3.7187500000000004 -4.7578125 6.7265625 -4.7578125l42.0546875 0.4375c2.84375 0.0546875 5.140625 2.3515625 5.140625 5.1953125v30.734375c-0.0546875 2.84375 -2.3515625 5.140625 -5.1953125 5.140625z" fill="#37474F" stroke-width="5.4688"></path>
    <path d="M435.421875 93.296875 369.96093750000006 158.59375" fill="none" stroke="#37474F" stroke-width="10.9375" stroke-miterlimit="10"></path>
    <path d="M70.9296875 472.9921875c6.179687499999999 5.6875 11.921875 10.4453125 16.515625 14V271.578125c-0.9296875000000001 0.7109375 -12.0859375 10.28125 -16.515625 14.4921875v186.921875z" fill="#82AEC0" stroke-width="5.4688"></path>
    <path d="M70.9296875 422.0234375v50.96875c6.179687499999999 5.6875 11.921875 10.4453125 16.515625 14V431.4296875c-6.015625000000001 -3.1171874999999996 -11.484375 -6.234374999999999 -16.515625 -9.40625z" fill="#546E7A" stroke-width="5.4688"></path>
  </g>
</svg>