<svg style="background-color: black;" xmlns="http://www.w3.org/2000/svg" xmlns:xlink="http://www.w3.org/1999/xlink"
     viewBox="0.00011110678 0.058148023 30.999779 31.000261" width="700px">
    <path d="M 16.408 2.618 C 16.661 2.618 16.909 2.543 17.119 2.402 C 17.33 2.262 17.494 2.062 17.591 1.828 C 17.687 1.594 17.713 1.337 17.663 1.088 C 17.614 0.84 17.492 0.612 17.313 0.433 C 17.134 0.254 16.906 0.132 16.658 0.083 C 16.409 0.033 16.152 0.059 15.918 0.156 C 15.684 0.252 15.484 0.417 15.344 0.627 C 15.203 0.838 15.128 1.085 15.128 1.338 C 15.128 1.506 15.161 1.673 15.225 1.828 C 15.289 1.984 15.384 2.125 15.503 2.244 C 15.621 2.363 15.763 2.457 15.918 2.521 C 16.073 2.585 16.24 2.618 16.408 2.618 Z"
          fill="rgb(255, 255, 255)"></path>
    <path d="M 7 5.769 C 7.179 5.59 7.301 5.362 7.351 5.114 C 7.4 4.865 7.375 4.608 7.278 4.374 C 7.181 4.14 7.017 3.94 6.806 3.8 C 6.596 3.659 6.348 3.584 6.095 3.584 C 5.842 3.584 5.595 3.659 5.384 3.8 C 5.174 3.94 5.01 4.14 4.913 4.374 C 4.816 4.608 4.791 4.865 4.84 5.114 C 4.889 5.362 5.011 5.59 5.19 5.769 C 5.309 5.888 5.45 5.982 5.605 6.046 C 5.761 6.111 5.927 6.144 6.095 6.144 C 6.263 6.144 6.43 6.111 6.585 6.046 C 6.741 5.982 6.882 5.888 7 5.769 Z"
          fill="rgb(255, 255, 255)"></path>
    <path d="M 2.56 14.65 C 2.56 14.397 2.485 14.15 2.344 13.939 C 2.203 13.729 2.004 13.564 1.77 13.468 C 1.536 13.371 1.279 13.345 1.03 13.395 C 0.782 13.444 0.554 13.566 0.375 13.745 C 0.196 13.924 0.074 14.152 0.025 14.4 C -0.025 14.649 0.001 14.906 0.097 15.14 C 0.194 15.374 0.358 15.574 0.569 15.714 C 0.779 15.855 1.027 15.93 1.28 15.93 C 1.619 15.93 1.945 15.795 2.185 15.555 C 2.425 15.315 2.56 14.99 2.56 14.65 Z"
          fill="rgb(255, 255, 255)"></path>
    <path d="M 5.711 24.065 C 5.532 23.886 5.304 23.764 5.055 23.715 C 4.807 23.666 4.55 23.691 4.316 23.788 C 4.082 23.885 3.882 24.049 3.742 24.259 C 3.601 24.47 3.526 24.717 3.526 24.97 C 3.526 25.224 3.601 25.471 3.742 25.682 C 3.882 25.892 4.082 26.056 4.316 26.153 C 4.55 26.25 4.807 26.275 5.055 26.226 C 5.304 26.176 5.532 26.055 5.711 25.876 C 5.83 25.757 5.924 25.616 5.988 25.46 C 6.053 25.305 6.086 25.139 6.086 24.97 C 6.086 24.802 6.053 24.636 5.988 24.481 C 5.924 24.325 5.83 24.184 5.711 24.065 Z"
          fill="rgb(255, 255, 255)"></path>
    <path d="M 14.59 28.498 C 14.337 28.498 14.09 28.573 13.879 28.714 C 13.669 28.855 13.505 29.055 13.408 29.288 C 13.311 29.522 13.286 29.78 13.335 30.028 C 13.384 30.276 13.506 30.504 13.685 30.683 C 13.864 30.862 14.092 30.984 14.341 31.034 C 14.589 31.083 14.846 31.058 15.08 30.961 C 15.314 30.864 15.514 30.7 15.654 30.489 C 15.795 30.279 15.87 30.031 15.87 29.778 C 15.87 29.439 15.735 29.114 15.495 28.874 C 15.255 28.634 14.93 28.499 14.59 28.498 Z"
          fill="rgb(255, 255, 255)"></path>
    <path d="M 24.008 25.352 C 23.829 25.532 23.707 25.76 23.658 26.008 C 23.608 26.256 23.634 26.513 23.731 26.747 C 23.827 26.981 23.992 27.181 24.202 27.322 C 24.413 27.462 24.66 27.537 24.913 27.537 C 25.166 27.537 25.414 27.462 25.624 27.322 C 25.835 27.181 25.999 26.981 26.096 26.747 C 26.192 26.513 26.218 26.256 26.168 26.008 C 26.119 25.76 25.997 25.532 25.818 25.352 C 25.699 25.234 25.558 25.139 25.403 25.075 C 25.248 25.011 25.081 24.977 24.913 24.977 C 24.745 24.977 24.579 25.011 24.423 25.075 C 24.268 25.139 24.127 25.234 24.008 25.352 Z"
          fill="rgb(255, 255, 255)"></path>
    <path d="M 28.44 16.469 C 28.44 16.722 28.515 16.969 28.656 17.18 C 28.796 17.39 28.996 17.554 29.23 17.651 C 29.464 17.748 29.722 17.773 29.97 17.724 C 30.218 17.675 30.446 17.553 30.625 17.374 C 30.804 17.195 30.926 16.967 30.975 16.718 C 31.025 16.47 30.999 16.213 30.903 15.979 C 30.806 15.745 30.642 15.545 30.431 15.405 C 30.221 15.264 29.973 15.189 29.72 15.189 C 29.381 15.189 29.055 15.324 28.815 15.564 C 28.575 15.804 28.44 16.129 28.44 16.469 Z"
          fill="rgb(255, 255, 255)"></path>
    <path d="M 25.293 7.059 C 25.472 7.238 25.7 7.36 25.948 7.409 C 26.196 7.458 26.454 7.433 26.687 7.336 C 26.921 7.239 27.121 7.075 27.262 6.865 C 27.402 6.654 27.478 6.407 27.478 6.154 C 27.478 5.9 27.402 5.653 27.262 5.442 C 27.121 5.232 26.921 5.068 26.687 4.971 C 26.454 4.874 26.196 4.849 25.948 4.898 C 25.7 4.948 25.472 5.069 25.293 5.248 C 25.174 5.367 25.079 5.508 25.015 5.664 C 24.951 5.819 24.918 5.985 24.918 6.154 C 24.918 6.322 24.951 6.488 25.015 6.643 C 25.079 6.799 25.174 6.94 25.293 7.059 Z"
          fill="rgb(255, 255, 255)"></path>
    <path d="M 18.658 6.198 C 18.192 6.467 18.004 7.03 17.936 7.563 C 17.877 8.029 17.674 8.464 17.354 8.807 C 17.035 9.151 16.616 9.386 16.156 9.479 C 15.696 9.571 15.219 9.517 14.791 9.324 C 14.364 9.131 14.007 8.809 13.773 8.403 C 13.538 7.997 13.437 7.527 13.483 7.06 C 13.53 6.593 13.722 6.153 14.032 5.801 C 14.342 5.449 14.755 5.203 15.212 5.098 C 15.669 4.993 16.148 5.035 16.58 5.216 C 17.077 5.424 17.659 5.539 18.126 5.273 C 18.594 5.007 18.781 4.441 18.848 3.907 C 18.907 3.442 19.11 3.006 19.429 2.662 C 19.748 2.318 20.168 2.083 20.627 1.99 C 21.087 1.898 21.565 1.951 21.993 2.144 C 22.42 2.337 22.777 2.659 23.011 3.065 C 23.246 3.472 23.348 3.941 23.301 4.408 C 23.255 4.875 23.063 5.316 22.753 5.668 C 22.443 6.02 22.03 6.266 21.573 6.371 C 21.115 6.476 20.637 6.434 20.204 6.253 C 19.708 6.046 19.126 5.93 18.658 6.198 Z"
          fill="rgb(255, 255, 255)"></path>
    <path d="M 11.114 6.705 C 10.976 7.225 11.24 7.757 11.569 8.183 C 11.856 8.553 12.02 9.005 12.036 9.473 C 12.053 9.941 11.923 10.403 11.664 10.794 C 11.404 11.184 11.029 11.483 10.59 11.649 C 10.152 11.814 9.672 11.838 9.22 11.717 C 8.767 11.595 8.364 11.335 8.067 10.973 C 7.77 10.61 7.594 10.163 7.564 9.696 C 7.535 9.228 7.653 8.763 7.901 8.365 C 8.15 7.968 8.517 7.659 8.951 7.482 C 9.449 7.277 9.946 6.95 10.08 6.429 C 10.213 5.908 9.954 5.376 9.625 4.951 C 9.338 4.58 9.175 4.129 9.158 3.66 C 9.142 3.192 9.273 2.73 9.532 2.34 C 9.792 1.95 10.168 1.651 10.606 1.486 C 11.045 1.32 11.524 1.297 11.977 1.418 C 12.429 1.54 12.832 1.8 13.129 2.163 C 13.426 2.526 13.601 2.973 13.631 3.44 C 13.66 3.908 13.542 4.373 13.293 4.77 C 13.044 5.167 12.677 5.476 12.243 5.654 C 11.75 5.857 11.255 6.186 11.114 6.705 Z"
          fill="rgb(255, 255, 255)"></path>
    <path d="M 6.139 12.4 C 6.409 12.866 6.973 13.054 7.506 13.122 C 7.972 13.181 8.407 13.385 8.75 13.705 C 9.094 14.024 9.328 14.444 9.421 14.904 C 9.513 15.364 9.459 15.841 9.265 16.269 C 9.072 16.696 8.749 17.052 8.343 17.286 C 7.936 17.521 7.466 17.621 7 17.574 C 6.533 17.527 6.092 17.335 5.741 17.024 C 5.389 16.714 5.144 16.3 5.039 15.843 C 4.935 15.385 4.977 14.907 5.159 14.474 C 5.367 13.978 5.482 13.396 5.216 12.929 C 4.95 12.461 4.384 12.274 3.849 12.206 C 3.383 12.147 2.948 11.944 2.605 11.624 C 2.261 11.304 2.027 10.885 1.934 10.425 C 1.842 9.965 1.896 9.487 2.09 9.06 C 2.283 8.632 2.606 8.276 3.012 8.042 C 3.419 7.808 3.889 7.707 4.356 7.754 C 4.822 7.801 5.263 7.994 5.614 8.304 C 5.966 8.615 6.211 9.028 6.316 9.486 C 6.42 9.943 6.378 10.422 6.196 10.854 C 5.988 11.35 5.873 11.932 6.139 12.4 Z"
          fill="rgb(255, 255, 255)"></path>
    <path d="M 6.647 19.944 C 7.168 20.082 7.698 19.818 8.125 19.489 C 8.496 19.202 8.947 19.039 9.415 19.022 C 9.884 19.005 10.346 19.135 10.736 19.395 C 11.126 19.654 11.425 20.03 11.591 20.468 C 11.757 20.906 11.78 21.386 11.659 21.839 C 11.538 22.291 11.278 22.695 10.915 22.992 C 10.552 23.288 10.106 23.464 9.638 23.494 C 9.17 23.523 8.705 23.406 8.308 23.157 C 7.911 22.908 7.601 22.541 7.424 22.107 C 7.219 21.609 6.89 21.112 6.371 20.979 C 5.852 20.845 5.319 21.104 4.893 21.433 C 4.522 21.721 4.071 21.885 3.602 21.902 C 3.133 21.919 2.671 21.788 2.28 21.529 C 1.889 21.269 1.59 20.893 1.424 20.455 C 1.258 20.016 1.234 19.536 1.356 19.083 C 1.477 18.63 1.738 18.226 2.101 17.929 C 2.464 17.632 2.911 17.456 3.379 17.426 C 3.847 17.397 4.313 17.515 4.71 17.764 C 5.108 18.013 5.417 18.381 5.594 18.815 C 5.799 19.31 6.126 19.804 6.647 19.944 Z"
          fill="rgb(255, 255, 255)"></path>
    <path d="M 12.338 24.92 C 12.804 24.651 12.993 24.087 13.062 23.553 C 13.121 23.088 13.325 22.654 13.645 22.311 C 13.964 21.968 14.383 21.733 14.843 21.641 C 15.302 21.549 15.779 21.604 16.206 21.797 C 16.633 21.99 16.989 22.313 17.223 22.719 C 17.457 23.125 17.558 23.594 17.511 24.061 C 17.464 24.527 17.272 24.967 16.962 25.318 C 16.651 25.67 16.239 25.915 15.782 26.019 C 15.325 26.124 14.846 26.082 14.414 25.9 C 13.916 25.692 13.334 25.578 12.869 25.844 C 12.403 26.11 12.212 26.676 12.145 27.211 C 12.085 27.676 11.881 28.11 11.562 28.453 C 11.242 28.796 10.823 29.03 10.364 29.122 C 9.904 29.214 9.428 29.16 9.001 28.967 C 8.574 28.773 8.218 28.451 7.984 28.045 C 7.75 27.639 7.649 27.17 7.696 26.704 C 7.743 26.237 7.934 25.797 8.244 25.446 C 8.554 25.094 8.967 24.849 9.424 24.744 C 9.88 24.64 10.359 24.681 10.791 24.862 C 11.29 25.07 11.872 25.189 12.338 24.92 Z"
          fill="rgb(255, 255, 255)"></path>
    <path d="M 19.885 24.412 C 20.025 23.891 19.761 23.359 19.43 22.934 C 19.143 22.563 18.979 22.111 18.962 21.642 C 18.944 21.174 19.075 20.711 19.334 20.321 C 19.594 19.93 19.97 19.63 20.409 19.465 C 20.847 19.299 21.327 19.275 21.781 19.396 C 22.234 19.518 22.637 19.778 22.934 20.141 C 23.232 20.504 23.407 20.951 23.437 21.419 C 23.467 21.888 23.348 22.353 23.099 22.751 C 22.85 23.148 22.482 23.457 22.048 23.635 C 21.55 23.84 21.055 24.168 20.92 24.687 C 20.784 25.207 21.044 25.74 21.374 26.166 C 21.662 26.536 21.826 26.988 21.843 27.457 C 21.86 27.926 21.729 28.388 21.47 28.779 C 21.21 29.17 20.834 29.469 20.396 29.635 C 19.957 29.801 19.477 29.824 19.024 29.703 C 18.571 29.582 18.167 29.321 17.87 28.958 C 17.573 28.595 17.397 28.148 17.367 27.68 C 17.338 27.212 17.456 26.746 17.705 26.349 C 17.954 25.951 18.322 25.642 18.756 25.464 C 19.253 25.26 19.746 24.932 19.885 24.412 Z"
          fill="rgb(255, 255, 255)"></path>
    <path d="M 24.859 18.719 C 24.59 18.253 24.027 18.064 23.494 17.995 C 23.029 17.936 22.594 17.733 22.251 17.413 C 21.908 17.094 21.674 16.675 21.581 16.216 C 21.488 15.756 21.542 15.28 21.735 14.852 C 21.928 14.425 22.25 14.069 22.656 13.835 C 23.062 13.601 23.531 13.499 23.997 13.546 C 24.464 13.592 24.904 13.784 25.256 14.093 C 25.607 14.403 25.853 14.815 25.958 15.272 C 26.063 15.729 26.022 16.207 25.841 16.639 C 25.633 17.137 25.519 17.719 25.783 18.185 C 26.047 18.651 26.616 18.841 27.15 18.909 C 27.615 18.968 28.05 19.172 28.393 19.491 C 28.736 19.811 28.97 20.229 29.062 20.689 C 29.155 21.149 29.101 21.625 28.907 22.053 C 28.714 22.48 28.392 22.835 27.986 23.07 C 27.58 23.304 27.111 23.405 26.644 23.358 C 26.178 23.312 25.738 23.12 25.386 22.81 C 25.035 22.5 24.789 22.087 24.685 21.63 C 24.58 21.173 24.621 20.695 24.803 20.263 C 25.011 19.767 25.128 19.185 24.859 18.719 Z"
          fill="rgb(255, 255, 255)"></path>
    <path d="M 24.354 11.172 C 23.833 11.034 23.301 11.298 22.875 11.628 C 22.505 11.916 22.053 12.08 21.584 12.097 C 21.115 12.114 20.653 11.984 20.262 11.724 C 19.872 11.465 19.572 11.089 19.406 10.65 C 19.241 10.211 19.217 9.731 19.338 9.278 C 19.459 8.825 19.72 8.421 20.083 8.124 C 20.446 7.827 20.893 7.651 21.361 7.622 C 21.829 7.592 22.295 7.71 22.693 7.959 C 23.09 8.209 23.399 8.576 23.577 9.011 C 23.781 9.509 24.109 10.004 24.629 10.139 C 25.15 10.274 25.682 10.015 26.107 9.684 C 26.478 9.398 26.93 9.235 27.398 9.218 C 27.866 9.201 28.328 9.332 28.718 9.592 C 29.108 9.851 29.407 10.227 29.572 10.666 C 29.738 11.104 29.761 11.583 29.64 12.036 C 29.518 12.489 29.258 12.892 28.895 13.189 C 28.532 13.485 28.086 13.661 27.618 13.69 C 27.15 13.72 26.685 13.601 26.288 13.352 C 25.891 13.103 25.582 12.736 25.405 12.302 C 25.202 11.807 24.873 11.313 24.354 11.172 Z"
          fill="rgb(255, 255, 255)"></path>
    <path d="M 15.499 19.399 C 17.621 19.399 19.341 17.679 19.341 15.557 C 19.341 13.436 17.621 11.716 15.499 11.716 C 13.378 11.716 11.658 13.436 11.658 15.557 C 11.658 17.679 13.378 19.399 15.499 19.399 Z"
          fill="rgb(255, 255, 255)"></path>
</svg>