<svg id="logo" width="700px" viewBox="356.449 251.517 485.98898 562.725" fill="none" xmlns="http://www.w3.org/2000/svg">
    <path d="M599.547 391.562C638.371 391.562 669.844 360.212 669.844 321.54C669.844 282.867 638.371 251.517 599.547 251.517C560.723 251.517 529.25 282.867 529.25 321.54C529.25 360.212 560.723 391.562 599.547 391.562Z" fill="#7734be"></path>
    <path d="M599.547 602.999C638.371 602.999 669.844 571.649 669.844 532.977C669.844 494.304 638.371 462.954 599.547 462.954C560.723 462.954 529.25 494.304 529.25 532.977C529.25 571.649 560.723 602.999 599.547 602.999Z" fill="#7734be"></path>
    <path d="M639.796 427.162C639.796 401.93 647.062 378.263 659.432 358.117L599.542 321.345L539.652 358.117C552.023 378.263 559.288 401.734 559.288 427.162C559.288 452.589 552.023 476.06 539.652 496.206L599.542 532.978L659.432 496.206C647.062 476.06 639.796 452.589 639.796 427.162Z" fill="#7734be"></path>
    <path d="M772.141 497.183C810.965 497.183 842.438 465.833 842.438 427.16C842.438 388.488 810.965 357.137 772.141 357.137C733.317 357.137 701.844 388.488 701.844 427.16C701.844 465.833 733.317 497.183 772.141 497.183Z" fill="#7734be"></path>
    <path d="M772.141 708.62C810.965 708.62 842.438 677.27 842.438 638.597C842.438 599.925 810.965 568.574 772.141 568.574C733.317 568.574 701.844 599.925 701.844 638.597C701.844 677.27 733.317 708.62 772.141 708.62Z" fill="#7734be"></path>
    <path d="M812.39 532.977C812.39 507.745 819.655 484.079 832.026 463.932L772.136 427.161L712.246 463.932C724.617 484.079 731.882 507.55 731.882 532.977C731.882 558.404 724.617 581.876 712.246 602.022L772.136 638.793L832.026 602.022C819.655 581.876 812.39 558.404 812.39 532.977Z" fill="#7734be"></path>
    <path d="M426.746 497.183C465.57 497.183 497.043 465.833 497.043 427.16C497.043 388.488 465.57 357.137 426.746 357.137C387.922 357.137 356.449 388.488 356.449 427.16C356.449 465.833 387.922 497.183 426.746 497.183Z" fill="#7734be"></path>
    <path d="M426.746 708.619C465.57 708.619 497.043 677.268 497.043 638.596C497.043 599.924 465.57 568.573 426.746 568.573C387.922 568.573 356.449 599.924 356.449 638.596C356.449 677.268 387.922 708.619 426.746 708.619Z" fill="#7734be"></path>
    <path d="M466.996 532.976C466.996 507.744 474.261 484.077 486.632 463.931L426.742 427.159L366.852 463.931C379.222 484.077 386.488 507.548 386.488 532.976C386.488 558.403 379.222 581.874 366.852 602.02L426.742 638.792L486.632 602.02C474.261 581.874 466.996 558.403 466.996 532.976Z" fill="#7734be"></path>
    <path d="M599.547 814.242C638.371 814.242 669.844 782.891 669.844 744.219C669.844 705.547 638.371 674.196 599.547 674.196C560.723 674.196 529.25 705.547 529.25 744.219C529.25 782.891 560.723 814.242 599.547 814.242Z" fill="#7734be"></path>
</svg>