<svg style="background-color: black;" id="logo" viewBox="0 0 104 100" width="700px" fill="none" xmlns="http://www.w3.org/2000/svg">
    <path d="M102.998 59.5H103.058L94.7785 23.44C94.1185 20.6 92.2485 18.25 89.6185 17L56.1585 0.94C54.9085 0.35 53.4985 0 52.1285 0C50.7585 0 49.3485 0.34 48.0385 0.94L14.4385 17C11.7785 18.25 9.93848 20.59 9.27848 23.44L0.968482 59.5C0.308482 62.34 0.968482 65.28 2.80848 67.59L26.0285 96.47C27.8085 98.72 30.5285 100 33.3685 100H70.5885C73.4285 100 76.1485 98.75 77.9285 96.47L101.148 67.59C102.988 65.34 103.678 62.34 102.988 59.5H102.998ZM44.5985 27.76H47.3185C48.1185 27.76 48.7785 27.11 48.7785 26.3V13.43C48.7785 12.63 49.4285 11.97 50.2385 11.97H53.7285C54.5285 11.97 55.1885 12.62 55.1885 13.43V26.31C55.1885 27.11 55.8385 27.77 56.6485 27.77H59.3785C60.4985 27.77 61.1985 28.98 60.6385 29.95L53.2585 42.74C52.6985 43.71 51.2985 43.71 50.7385 42.74L43.3585 29.95C42.7985 28.98 43.4985 27.77 44.6185 27.77L44.5985 27.76ZM29.9685 54.58C29.1685 54.58 28.5085 55.23 28.5085 56.04V58.77C28.5085 59.89 27.2985 60.59 26.3285 60.03L13.5385 52.65C12.5685 52.09 12.5685 50.69 13.5385 50.13L26.3285 42.75C27.2985 42.19 28.5085 42.89 28.5085 44.01V46.73C28.5085 47.53 29.1585 48.19 29.9685 48.19H42.8485C43.6485 48.19 44.3085 48.84 44.3085 49.65V53.14C44.3085 53.94 43.6585 54.6 42.8485 54.6H29.9685V54.58ZM59.3685 75.01H56.6485C55.8485 75.01 55.1885 75.66 55.1885 76.47V89.35C55.1885 90.15 54.5385 90.81 53.7285 90.81H50.2385C49.4385 90.81 48.7785 90.16 48.7785 89.35V76.47C48.7785 75.67 48.1285 75.01 47.3185 75.01H44.5885C43.4685 75.01 42.7685 73.8 43.3285 72.83L50.7085 60.04C51.2685 59.07 52.6685 59.07 53.2285 60.04L60.6085 72.83C61.1685 73.8 60.4685 75.01 59.3485 75.01H59.3685ZM90.4285 52.65L77.6385 60.03C76.6685 60.59 75.4585 59.89 75.4585 58.77V56.05C75.4585 55.25 74.8085 54.59 73.9985 54.59H61.1185C60.3185 54.59 59.6585 53.94 59.6585 53.13V49.64C59.6585 48.84 60.3085 48.18 61.1185 48.18H73.9985C74.7985 48.18 75.4585 47.53 75.4585 46.72V43.99C75.4585 42.87 76.6685 42.17 77.6385 42.73L90.4285 50.11C91.3985 50.67 91.3985 52.07 90.4285 52.63V52.65Z" fill="white"></path>
    <g clip-path="url(#clip0_14145_57)">
    </g>
    <defs>
        <clipPath id="clip0_14145_57">
            <rect width="362" height="84" fill="white" transform="translate(131.279 12.16)"></rect>
        </clipPath>
    </defs>
</svg>