<svg style="background-color: black;" xmlns="http://www.w3.org/2000/svg" xmlns:xlink="http://www.w3.org/1999/xlink" viewBox="0 0 115.82 28"><g><defs><linearGradient id="idss10539593557_1g1554708980" x1="0" x2="1" y1="0.2409126348996266" y2="0.7590873651003733"><stop offset="0" stop-color="rgb(0,163,255)" stop-opacity="1"></stop><stop offset="1" stop-color="rgb(255,15,0)" stop-opacity="1"></stop></linearGradient></defs><path d="M 18.624 0 C 21.099 0 23.376 1.335 24.616 3.485 L 28.608 10.409 C 29.867 12.592 29.872 15.292 28.623 17.48 L 24.62 24.49 C 23.384 26.654 21.1 28 18.614 28 L 10.877 28 C 8.373 28 6.076 26.635 4.846 24.447 L 0.909 17.437 C -0.308 15.271 -0.303 12.614 0.923 10.453 L 4.85 3.529 C 6.083 1.354 8.374 0 10.867 0 Z M 10.867 3.111 C 9.512 3.111 8.246 3.847 7.556 5.064 L 3.63 11.988 C 2.942 13.2 2.938 14.697 3.621 15.913 L 7.558 22.923 C 8.246 24.147 9.516 24.889 10.877 24.889 L 18.614 24.889 C 19.965 24.889 21.228 24.158 21.919 22.948 L 25.921 15.938 C 26.622 14.71 26.62 13.189 25.913 11.964 L 21.92 5.039 C 21.227 3.836 19.969 3.111 18.624 3.111 Z M 15.368 7.328 C 16.015 6.764 16.998 6.831 17.562 7.479 L 21.91 12.468 C 22.675 13.346 22.675 14.654 21.91 15.532 L 17.562 20.521 C 16.998 21.169 16.015 21.236 15.368 20.672 C 14.72 20.107 14.653 19.126 15.217 18.478 L 19.119 14 L 15.217 9.522 C 14.653 8.874 14.72 7.893 15.368 7.328 Z" fill="url(%23idss10539593557_1g1554708980)"></path></g><path d="M 41.795 19.881 C 43.248 19.881 44.5 19.318 45.574 18.18 C 46.647 17.042 47.183 15.645 47.183 14 C 47.183 12.355 46.647 10.969 45.574 9.832 C 44.5 8.694 43.248 8.119 41.795 8.119 C 41.381 8.119 40.99 8.187 40.61 8.299 C 40.23 8.412 39.917 8.547 39.682 8.694 C 39.436 8.84 39.213 9.009 39.012 9.189 C 38.81 9.37 38.676 9.494 38.609 9.561 C 38.542 9.629 38.497 9.685 38.475 9.73 L 38.475 8.344 L 35.39 8.344 L 35.39 24.5 L 38.475 24.5 L 38.475 18.27 L 38.821 18.687 C 39.045 18.957 39.436 19.216 39.995 19.487 C 40.554 19.757 41.147 19.881 41.795 19.881 Z M 41.225 10.891 C 41.985 10.891 42.634 11.183 43.17 11.769 C 43.707 12.355 43.975 13.099 43.975 14.011 C 43.975 14.913 43.707 15.667 43.17 16.253 C 42.634 16.839 41.985 17.132 41.225 17.132 C 40.465 17.132 39.817 16.839 39.28 16.253 C 38.743 15.667 38.475 14.913 38.475 14.011 C 38.475 13.099 38.743 12.355 39.28 11.769 C 39.817 11.183 40.465 10.891 41.225 10.891 Z" fill="rgb(255,255,255)"></path><path d="M 51.761 14.011 C 51.761 13.166 52.029 12.457 52.577 11.871 C 53.114 11.296 53.762 11.003 54.511 11.003 C 55.249 11.003 55.897 11.296 56.445 11.871 C 56.982 12.457 57.261 13.166 57.261 14.011 C 57.261 14.856 56.982 15.566 56.445 16.141 C 55.897 16.715 55.249 16.997 54.511 16.997 C 53.762 16.997 53.114 16.715 52.577 16.141 C 52.029 15.566 51.761 14.856 51.761 14.011 Z M 60.458 14 C 60.458 12.434 59.866 11.06 58.681 9.888 C 57.496 8.716 56.11 8.13 54.511 8.13 C 52.901 8.13 51.515 8.716 50.33 9.888 C 49.145 11.06 48.553 12.434 48.553 14 C 48.553 15.577 49.145 16.952 50.33 18.123 C 51.515 19.295 52.901 19.881 54.511 19.881 C 56.11 19.881 57.496 19.295 58.681 18.123 C 59.866 16.952 60.458 15.577 60.458 14 Z" fill="rgb(255,255,255)"></path><path d="M 69.273 8.232 L 68.815 8.232 C 68.2 8.232 67.619 8.378 67.06 8.649 C 66.501 8.93 66.143 9.156 65.975 9.325 C 65.819 9.494 65.685 9.629 65.595 9.73 L 65.595 8.344 L 62.51 8.344 L 62.51 19.656 L 65.595 19.656 L 65.595 14.237 C 65.595 13.268 65.841 12.524 66.311 12.006 C 66.78 11.488 67.429 11.229 68.233 11.229 C 68.692 11.24 69.038 11.285 69.262 11.364 Z" fill="rgb(255,255,255)"></path><path d="M 72.141 7.083 C 72.141 7.533 72.018 7.894 71.772 8.164 C 71.526 8.446 71.224 8.581 70.877 8.581 L 69.849 8.581 L 69.849 11.352 L 71.794 11.352 L 71.794 15.96 C 71.794 18.574 72.968 19.881 75.338 19.881 C 76.098 19.892 76.791 19.779 77.406 19.543 L 77.406 16.884 L 77.272 16.929 C 77.171 16.974 77.026 17.019 76.836 17.064 C 76.646 17.109 76.456 17.121 76.254 17.121 C 75.852 17.121 75.528 16.997 75.271 16.749 C 75.014 16.501 74.891 16.208 74.891 15.848 L 74.891 11.352 L 77.171 11.352 L 77.171 8.581 L 74.891 8.581 L 74.891 5.01 L 72.141 5.01 Z" fill="rgb(255,255,255)"></path><path d="M 84.387 15.273 L 87.372 19.656 L 90.804 19.656 L 86.343 13.2 L 90.569 8.344 L 87.025 8.344 L 83.023 12.963 L 83.023 3.5 L 79.927 3.5 L 79.927 19.656 L 83.023 19.656 L 83.023 16.884 Z" fill="rgb(255,255,255)"></path><path d="M 102.704 15.037 L 102.816 13.775 C 102.816 12.164 102.279 10.823 101.217 9.741 C 100.144 8.66 98.814 8.119 97.215 8.119 C 95.605 8.119 94.23 8.705 93.09 9.854 C 91.939 11.003 91.369 12.389 91.369 14 C 91.369 15.622 91.95 17.008 93.112 18.157 C 94.275 19.306 95.672 19.881 97.327 19.881 C 97.908 19.881 98.467 19.813 99.015 19.678 C 99.563 19.543 100.01 19.396 100.356 19.216 C 100.692 19.036 101.016 18.833 101.329 18.608 C 101.631 18.383 101.832 18.225 101.921 18.135 L 102.134 17.921 L 100.535 15.848 L 100.211 16.197 C 100.01 16.433 99.652 16.67 99.16 16.895 C 98.668 17.121 98.132 17.233 97.55 17.233 C 96.746 17.233 96.075 17.031 95.549 16.602 C 95.013 16.174 94.689 15.656 94.577 15.037 Z M 97.215 10.778 C 97.863 10.778 98.422 10.981 98.87 11.364 C 99.317 11.758 99.607 12.254 99.73 12.851 L 94.577 12.851 C 94.756 12.242 95.08 11.736 95.538 11.352 C 95.997 10.969 96.556 10.778 97.215 10.778 Z" fill="rgb(255,255,255)"></path><path d="M 107.517 20.343 C 107.148 21.199 106.499 21.616 105.571 21.616 C 105.113 21.616 104.733 21.548 104.431 21.391 L 104.431 24.151 L 104.655 24.23 C 104.811 24.297 105.046 24.354 105.381 24.41 C 105.706 24.477 106.041 24.5 106.376 24.5 C 108.254 24.5 109.696 23.114 110.725 20.343 L 115.185 8.344 L 111.988 8.344 L 109.35 15.848 L 106.723 8.344 L 103.515 8.344 L 107.863 19.543 Z" fill="rgb(255,255,255)"></path></svg>